<?xml version="1.0" encoding="utf-8"?>
<svg xmlns="http://www.w3.org/2000/svg" style="margin: auto; background: rgb(241, 242, 243); display: block; shape-rendering: auto;" width="280" height="250" preserveAspectRatio="xMidYMid">
<style type="text/css">
  text {
    text-anchor: middle; font-size: 43px; opacity: 0;
  }
</style>
<g style="transform-origin: 140px 125px; transform: scale(0.5375);">
<g transform="translate(140,125)">
  <g transform="translate(0,0)"><g class="path" style="transform: matrix(1, 0, 0, 1, 0, 0); transform-origin: -183.44px 3.384px; animation: 1s linear -0.594s infinite normal forwards running bounce-0a6d6283-df20-4580-af46-02a9da33dae5;"><path d="M24.72 15.52L24.72 15.52L24.72 15.52Q33.12 15.52 37.80 12.08L37.80 12.08L37.80 12.08Q42.48 8.64 42.48 2.96L42.48 2.96L42.48 2.96Q42.48-1.12 40.44-4.24L40.44-4.24L40.44-4.24Q38.40-7.36 35.36-9.40L35.36-9.40L35.36-9.40Q32.32-11.44 29.16-13.44L29.16-13.44L29.16-13.44Q26-15.44 23.28-18.48L23.28-18.48L23.28-18.48Q20.56-21.52 19.68-25.36L19.68-25.36L19.68-25.36Q12.40-27.52 10.08-34.40L10.08-34.40L10.08-34.40Q9.20-37.04 9.20-39.92L9.20-39.92L9.20-39.92Q9.20-42.80 10.08-45.92L10.08-45.92L10.08-45.92Q11.92-52.08 16.08-55.20L16.08-55.20L16.96-53.92L16.96-53.92Q13.20-51.20 11.52-45.44L11.52-45.44L11.52-45.44Q10.72-42.56 10.72-39.92L10.72-39.92L10.72-39.92Q10.72-37.28 11.52-34.88L11.52-34.88L11.52-34.88Q13.44-29.04 19.44-27.04L19.44-27.04L19.44-27.04Q19.28-27.92 19.28-29.76L19.28-29.76L19.28-29.76Q19.28-40.24 26.88-46.72L26.88-46.72L26.88-46.72Q34.48-53.20 45.44-53.20L45.44-53.20L45.44-53.20Q52.64-53.20 56.96-49.28L56.96-49.28L56.96-49.28Q60.64-45.84 60.64-40.84L60.64-40.84L60.64-40.84Q60.64-35.84 57.28-32.20L57.28-32.20L57.28-32.20Q53.92-28.56 48.24-28.56L48.24-28.56L48.24-28.56Q45.12-28.56 43.12-29.76L43.12-29.76L43.12-29.76Q39.04-26.64 33.44-25.28L33.44-25.28L33.44-25.28Q35.04-23.76 40.92-19.68L40.92-19.68L40.92-19.68Q46.80-15.60 49.72-11.88L49.72-11.88L49.72-11.88Q52.64-8.16 52.64-3.20L52.64-3.20L52.64-3.20Q52.64 5.92 45.56 11.60L45.56 11.60L45.56 11.60Q38.48 17.28 27.64 17.28L27.64 17.28L27.64 17.28Q16.80 17.28 11.28 12.48L11.28 12.48L11.28 12.48Q6.48 8.40 6.48 2.52L6.48 2.52L6.48 2.52Q6.48-3.36 10.28-7.56L10.28-7.56L10.28-7.56Q14.08-11.76 19.76-11.76L19.76-11.76L19.76-11.76Q25.44-11.76 28.16-9.24L28.16-9.24L28.16-9.24Q30.88-6.72 30.88-3.12L30.88-3.12L30.88-3.12Q30.88 0.48 28.68 3.28L28.68 3.28L28.68 3.28Q26.48 6.08 22.96 6.08L22.96 6.08L22.96 6.08Q19.44 6.08 17.36 3.84L17.36 3.84L17.36 3.84Q15.44 1.92 15.20-0.96L15.20-0.96L15.20-0.96Q15.12-1.76 15.20-1.92L15.20-1.92L16.72-1.84L16.72-1.84Q16.64 0.96 18.48 2.80L18.48 2.80L18.48 2.80Q20 4.48 22.92 4.48L22.92 4.48L22.92 4.48Q25.84 4.48 27.60 2.20L27.60 2.20L27.60 2.20Q29.36-0.08 29.36-3.08L29.36-3.08L29.36-3.08Q29.36-6.08 27.28-7.92L27.28-7.92L27.28-7.92Q24.96-10.24 19.84-10.24L19.84-10.24L19.84-10.24Q14.72-10.24 11.36-6.52L11.36-6.52L11.36-6.52Q8-2.80 8 2.44L8 2.44L8 2.44Q8 7.68 12.32 11.36L12.32 11.36L12.32 11.36Q14.88 13.60 17.56 14.56L17.56 14.56L17.56 14.56Q20.24 15.52 24.72 15.52zM38.32-39.52L38.32-39.52L38.32-39.52Q38.32-43.04 40.12-45.36L40.12-45.36L40.12-45.36Q41.92-47.68 45.04-47.68L45.04-47.68L45.04-47.68Q50.40-47.68 50.40-41.80L50.40-41.80L50.40-41.80Q50.40-35.92 44.56-30.72L44.56-30.72L44.56-30.72Q46.32-29.92 48.24-29.92L48.24-29.92L48.24-29.92Q53.20-29.92 56.16-33.16L56.16-33.16L56.16-33.16Q59.12-36.40 59.12-40.76L59.12-40.76L59.12-40.76Q59.12-45.12 55.92-48.16L55.92-48.16L55.92-48.16Q52-51.68 45.60-51.68L45.60-51.68L45.60-51.68Q39.20-51.68 34.72-48.56L34.72-48.56L34.72-48.56Q27.76-43.60 27.76-35.76L27.76-35.76L27.76-35.76Q27.76-29.28 32.08-26.32L32.08-26.32L32.08-26.32Q37.44-27.52 42-30.64L42-30.64L42-30.64Q38.32-33.92 38.32-39.52zM44.96-46.24L44.96-46.24L44.96-46.24Q42.56-46.24 41.24-44.40L41.24-44.40L41.24-44.40Q39.92-42.56 39.92-39.52L39.92-39.52L39.92-39.52Q39.92-34.32 43.20-31.60L43.20-31.60L43.20-31.60Q45.60-33.28 47.20-36.16L47.20-36.16L47.20-36.16Q48.80-39.04 48.80-41.84L48.80-41.84L48.80-41.84Q48.80-46.24 44.96-46.24" fill="#0a0a0a" stroke="none" stroke-width="none" transform="translate(-216.99999618530273,22.343995941162117)" style="fill: rgb(10, 10, 10);"></path></g><g class="path" style="transform: matrix(1, 0, 0, 1, 0, 0); transform-origin: -138.2px 7.144px; animation: 1s linear -0.528s infinite normal forwards running bounce-0a6d6283-df20-4580-af46-02a9da33dae5;"><path d="M89.76 0.72L89.76 0.72L89.76 0.72Q82.72 0.72 82.08-5.44L82.08-5.44L82.08-5.44Q78.56 0.72 73.20 0.72L73.20 0.72L73.20 0.72Q67.84 0.72 64.68-2.52L64.68-2.52L64.68-2.52Q61.52-5.76 61.52-11.60L61.52-11.60L61.52-11.60Q61.52-20.72 66-25.92L66-25.92L66-25.92Q70.48-31.12 77.60-31.12L77.60-31.12L77.60-31.12Q83.44-31.12 85.36-25.60L85.36-25.60L85.36-25.60Q85.76-28 86.24-30.40L86.24-30.40L86.24-30.40Q92.16-30.40 95.04-30.88L95.04-30.88L96.08-31.12L90.56-0.88L90.56-0.88Q92.96-1.12 94.56-3.12L94.56-3.12L95.76-2.16L95.76-2.16Q93.36 0.72 89.76 0.72zM70.56-7.52L70.56-7.52Q70.56-3.92 71.48-2.52L71.48-2.52L71.48-2.52Q72.40-1.12 74.32-1.12L74.32-1.12L74.32-1.12Q76.24-1.12 78.24-3.20L78.24-3.20L78.24-3.20Q80.88-5.92 82.48-10.08L82.48-10.08L82.48-10.08Q82.72-11.12 83.40-15.08L83.40-15.08L83.40-15.08Q84.08-19.04 84.56-21.60L84.56-21.60L84.56-21.60Q84.32-24.64 82.88-26.88L82.88-26.88L82.88-26.88Q81.44-29.12 79.28-29.12L79.28-29.12L79.28-29.12Q75.36-29.12 72.96-22.12L72.96-22.12L72.96-22.12Q70.56-15.12 70.56-7.52L70.56-7.52" fill="#0a0a0a" stroke="none" stroke-width="none" transform="translate(-216.99999618530273,22.343995941162117)" style="fill: rgb(10, 10, 10);"></path></g><g class="path" style="transform: matrix(1, 0, 0, 1, 0, 0); transform-origin: -100.8px -2.496px; animation: 1s linear -0.462s infinite normal forwards running bounce-0a6d6283-df20-4580-af46-02a9da33dae5;"><path d="M114.80 0.72L114.80 0.72L114.80 0.72Q109.76 0.72 107.44-2.64L107.44-2.64L100.72 2.16L99.20 2.16L108.16-50.24L108.16-50.24Q105.76-50 104.16-48L104.16-48L102.96-48.96L102.96-48.96Q105.36-51.84 109.00-51.84L109.00-51.84L109.00-51.84Q112.64-51.84 114.64-50L114.64-50L114.64-50Q116.64-48.16 116.64-44.80L116.64-44.80L116.64-44.80Q116.64-44.16 116.48-42.72L116.48-42.72L116.48-42.72Q115.20-35.60 113.36-25.60L113.36-25.60L113.36-25.60Q116.72-31.04 122.08-31.04L122.08-31.04L122.08-31.04Q127.44-31.04 130.32-27.96L130.32-27.96L130.32-27.96Q133.20-24.88 133.20-19.52L133.20-19.52L133.20-19.52Q133.20-10.08 128.08-4.68L128.08-4.68L128.08-4.68Q122.96 0.72 114.80 0.72zM114.24-1.44L114.24-1.44L114.24-1.44Q118.64-1.44 121.40-7.56L121.40-7.56L121.40-7.56Q124.16-13.68 124.16-22.80L124.16-22.80L124.16-22.80Q124.16-26.48 123.40-27.84L123.40-27.84L123.40-27.84Q122.64-29.20 120.64-29.20L120.64-29.20L120.64-29.20Q118.64-29.20 116.52-26.80L116.52-26.80L116.52-26.80Q114.40-24.40 113.44-22.28L113.44-22.28L113.44-22.28Q112.48-20.16 112.48-19.84L112.48-19.84L112.32-19.84L112.32-19.84Q110.32-9.36 109.36-4L109.36-4L109.36-4Q110.72-1.44 114.24-1.44" fill="#0a0a0a" stroke="none" stroke-width="none" transform="translate(-216.99999618530273,22.343995941162117)" style="fill: rgb(10, 10, 10);"></path></g><g class="path" style="transform: matrix(1, 0, 0, 1, 0, 0); transform-origin: -62.6px 7.144px; animation: 1s linear -0.396s infinite normal forwards running bounce-0a6d6283-df20-4580-af46-02a9da33dae5;"><path d="M165.36 0.72L165.36 0.72L165.36 0.72Q158.32 0.72 157.68-5.44L157.68-5.44L157.68-5.44Q154.16 0.72 148.80 0.72L148.80 0.72L148.80 0.72Q143.44 0.72 140.28-2.52L140.28-2.52L140.28-2.52Q137.12-5.76 137.12-11.60L137.12-11.60L137.12-11.60Q137.12-20.72 141.60-25.92L141.60-25.92L141.60-25.92Q146.08-31.12 153.20-31.12L153.20-31.12L153.20-31.12Q159.04-31.12 160.96-25.60L160.96-25.60L160.96-25.60Q161.36-28 161.84-30.40L161.84-30.40L161.84-30.40Q167.76-30.40 170.64-30.88L170.64-30.88L171.68-31.12L166.16-0.88L166.16-0.88Q168.56-1.12 170.16-3.12L170.16-3.12L171.36-2.16L171.36-2.16Q168.96 0.72 165.36 0.72zM146.16-7.52L146.16-7.52Q146.16-3.92 147.08-2.52L147.08-2.52L147.08-2.52Q148-1.12 149.92-1.12L149.92-1.12L149.92-1.12Q151.84-1.12 153.84-3.20L153.84-3.20L153.84-3.20Q156.48-5.92 158.08-10.08L158.08-10.08L158.08-10.08Q158.32-11.12 159-15.08L159-15.08L159-15.08Q159.68-19.04 160.16-21.60L160.16-21.60L160.16-21.60Q159.92-24.64 158.48-26.88L158.48-26.88L158.48-26.88Q157.04-29.12 154.88-29.12L154.88-29.12L154.88-29.12Q150.96-29.12 148.56-22.12L148.56-22.12L148.56-22.12Q146.16-15.12 146.16-7.52L146.16-7.52" fill="#0a0a0a" stroke="none" stroke-width="none" transform="translate(-216.99999618530273,22.343995941162117)" style="fill: rgb(10, 10, 10);"></path></g><g class="path" style="transform: matrix(1, 0, 0, 1, 0, 0); transform-origin: -26.12px 6.784px; animation: 1s linear -0.33s infinite normal forwards running bounce-0a6d6283-df20-4580-af46-02a9da33dae5;"><path d="M177.52-27.28L176.32-28.24L176.32-28.24Q178.72-31.12 182.36-31.12L182.36-31.12L182.36-31.12Q186-31.12 188-29.28L188-29.28L188-29.28Q190-27.44 190-24.08L190-24.08L190-23.60L190-23.60Q193.60-31.12 199.36-31.12L199.36-31.12L199.36-31.12Q205.52-31.12 205.52-24.72L205.52-24.72L205.52-24.72Q205.52-22.08 203.76-19.12L203.76-19.12L203.76-19.12Q202-16.16 200.24-13.48L200.24-13.48L200.24-13.48Q198.48-10.80 198.48-8.72L198.48-8.72L196.56-8.72L196.56-8.72Q196.56-11.68 200-16.72L200-16.72L200-16.72Q203.44-21.76 203.44-24.52L203.44-24.52L203.44-24.52Q203.44-27.28 202.36-28.28L202.36-28.28L202.36-28.28Q201.28-29.28 199.16-29.28L199.16-29.28L199.16-29.28Q197.04-29.28 195-27.44L195-27.44L195-27.44Q192.96-25.60 191.60-22.80L191.60-22.80L191.60-22.80Q189.44-18.64 188.72-16L188.72-16L188.72-15.92L185.84 0L176.24 0L181.52-29.52L181.52-29.52Q179.12-29.28 177.52-27.28L177.52-27.28" fill="#0a0a0a" stroke="none" stroke-width="none" transform="translate(-216.99999618530273,22.343995941162117)" style="fill: rgb(10, 10, 10);"></path></g><g class="path" style="transform: matrix(1, 0, 0, 1, 0, 0); transform-origin: 44.2px 4.10399px; animation: 1s linear -0.264s infinite normal forwards running bounce-0a6d6283-df20-4580-af46-02a9da33dae5;"><path d="M226.08-24.80L226.08-24.80L226.08-24.80Q226.08-36.24 238.04-42.48L238.04-42.48L238.04-42.48Q250-48.72 271.84-48.72L271.84-48.72L271.84-48.72Q284.24-48.72 290-44.96L290-44.96L290-44.96Q295.76-41.20 295.76-34.72L295.76-34.72L295.76-34.72Q295.76-29.28 292.04-24.96L292.04-24.96L292.04-24.96Q288.32-20.64 281.60-18.56L281.60-18.56L281.60-18.56Q296.32-16.88 296.32-8.24L296.32-8.24L296.32-8.24Q296.32-3.76 293.16-0.76L293.16-0.76L293.16-0.76Q290 2.24 284.80 3.52L284.80 3.52L284.80 3.52Q276 5.68 266.72 5.68L266.72 5.68L266.72 4.08L266.72 4.08Q268.56 4.24 270.24 4.24L270.24 4.24L270.24 4.24Q278.24 4.24 282.32 1.44L282.32 1.44L282.32 1.44Q287.28-2 287.28-7.60L287.28-7.60L287.28-7.60Q287.28-10.80 285.32-13.32L285.32-13.32L285.32-13.32Q283.36-15.84 281.44-16.80L281.44-16.80L279.44-17.76L279.44-17.76Q276.88-17.20 273.68-17.20L273.68-17.20L273.68-18.80L273.68-18.80Q281.36-18.80 287.68-23.20L287.68-23.20L287.68-23.20Q294-27.60 294-34.72L294-34.72L294-34.72Q294-40.64 288.44-43.88L288.44-43.88L288.44-43.88Q282.88-47.12 272.56-47.20L272.56-47.20L272.56-47.20Q268.16-17.44 265.84-6.24L265.84-6.24L265.84-6.24Q264.24 2.40 257.84 7.32L257.84 7.32L257.84 7.32Q251.44 12.24 244.16 12.24L244.16 12.24L244.16 10.72L244.16 10.72Q247.28 10.48 248.76 10.04L248.76 10.04L248.76 10.04Q250.24 9.60 251.28 8.20L251.28 8.20L251.28 8.20Q252.32 6.80 252.80 4.88L252.80 4.88L252.80 4.88Q253.68 0.96 254.16-2.56L254.16-2.56L261.84-46.80L261.84-46.80Q245.44-45.44 236.52-39.72L236.52-39.72L236.52-39.72Q227.60-34 227.60-24.80L227.60-24.80L227.60-24.80Q227.60-20.64 230.48-17.76L230.48-17.76L230.48-17.76Q232.48-15.84 235.76-14.84L235.76-14.84L235.76-14.84Q239.04-13.84 241.16-13.72L241.16-13.72L241.16-13.72Q243.28-13.60 243.44-13.76L243.44-13.76L243.44-12.08L243.44-12.08Q234-12.08 229.44-16.56L229.44-16.56L229.44-16.56Q226.08-19.68 226.08-24.80" fill="#0a0a0a" stroke="none" stroke-width="none" transform="translate(-216.99999618530273,22.343995941162117)" style="fill: rgb(10, 10, 10);"></path></g><g class="path" style="transform: matrix(1, 0, 0, 1, 0, 0); transform-origin: 101.32px 7.144px; animation: 1s linear -0.198s infinite normal forwards running bounce-0a6d6283-df20-4580-af46-02a9da33dae5;"><path d="M315.20 0.72L315.20 0.72Q309.04 0.72 305.84-2.36L305.84-2.36L305.84-2.36Q302.64-5.44 302.64-10.12L302.64-10.12L302.64-10.12Q302.64-14.80 303.48-18.12L303.48-18.12L303.48-18.12Q304.32-21.44 306.24-24.52L306.24-24.52L306.24-24.52Q308.16-27.60 312.04-29.36L312.04-29.36L312.04-29.36Q315.92-31.12 321.72-31.12L321.72-31.12L321.72-31.12Q327.52-31.12 330.76-28.04L330.76-28.04L330.76-28.04Q334-24.96 334-19.60L334-19.60L334-19.60Q334-10.48 329.16-4.88L329.16-4.88L329.16-4.88Q324.32 0.72 315.20 0.72L315.20 0.72zM311.68-7.52L311.68-7.52L311.68-7.52Q311.68-1.12 315.40-1.12L315.40-1.12L315.40-1.12Q319.12-1.12 322.04-7.56L322.04-7.56L322.04-7.56Q324.96-14 324.96-22.88L324.96-22.88L324.96-22.88Q324.96-29.60 321.32-29.60L321.32-29.60L321.32-29.60Q317.68-29.60 314.68-23.48L314.68-23.48L314.68-23.48Q311.68-17.36 311.68-7.52" fill="#0a0a0a" stroke="none" stroke-width="none" transform="translate(-216.99999618530273,22.343995941162117)" style="fill: rgb(10, 10, 10);"></path></g><g class="path" style="transform: matrix(1, 0, 0, 1, 0, 0); transform-origin: 132.36px 5.304px; animation: 1s linear -0.132s infinite normal forwards running bounce-0a6d6283-df20-4580-af46-02a9da33dae5;"><path d="M345.44-1.36L345.44-1.36L345.44-1.36Q353.36-1.36 353.36-13.04L353.36-13.04L353.36-13.04Q353.36-15.92 352.52-19.84L352.52-19.84L352.52-19.84Q351.68-23.76 351.52-24.72L351.52-24.72L351.52-24.72Q346.64-19.68 340.56-18.64L340.56-18.64L340.56-20.56L340.56-20.56Q346.32-21.84 351.36-27.12L351.36-27.12L351.36-27.44L351.36-27.44Q351.36-29.36 351.92-31.20L351.92-31.20L351.92-31.20Q352.48-33.04 353.04-33.92L353.04-33.92L353.60-34.80L355.52-34.80L355.52-34.80Q355.52-31.28 356.64-28.36L356.64-28.36L356.64-28.36Q357.76-25.44 359.12-23.64L359.12-23.64L359.12-23.64Q360.48-21.84 361.60-18.92L361.60-18.92L361.60-18.92Q362.72-16 362.72-12.48L362.72-12.48L362.72-12.48Q362.72-6.80 358.44-3.04L358.44-3.04L358.44-3.04Q354.16 0.72 348.16 0.72L348.16 0.72L348.16 0.72Q342.16 0.72 339.08-2L339.08-2L339.08-2Q336.00-4.72 336.00-8.28L336.00-8.28L336.00-8.28Q336.00-11.84 337.76-13.40L337.76-13.40L337.76-13.40Q339.52-14.96 341.92-14.96L341.92-14.96L341.92-14.96Q344.32-14.96 345.88-13.40L345.88-13.40L345.88-13.40Q347.44-11.84 347.44-9.40L347.44-9.40L347.44-9.40Q347.44-6.96 345.92-5.28L345.92-5.28L345.92-5.28Q344.40-3.60 342.00-3.60L342.00-3.60L342.00-3.60Q340.96-3.60 339.84-3.92L339.84-3.92L339.84-3.92Q341.60-1.36 345.44-1.36" fill="#0a0a0a" stroke="none" stroke-width="none" transform="translate(-216.99999618530273,22.343995941162117)" style="fill: rgb(10, 10, 10);"></path></g><g class="path" style="transform: matrix(1, 0, 0, 1, 0, 0); transform-origin: 166.88px -3.216px; animation: 1s linear -0.066s infinite normal forwards running bounce-0a6d6283-df20-4580-af46-02a9da33dae5;"><path d="M378.88-15.44L378.88-15.44L376.00 0L366.48 0L375.52-50.24L375.52-50.24Q373.12-50 371.52-48L371.52-48L370.32-48.96L370.32-48.96Q372.72-51.84 376.36-51.84L376.36-51.84L376.36-51.84Q380.00-51.84 382.00-50L382.00-50L382.00-50Q384.00-48.16 384.00-44.80L384.00-44.80L384.00-44.80Q384.00-44.16 383.84-42.72L383.84-42.72L383.84-42.72Q382.00-32.56 379.84-20.80L379.84-20.80L379.84-20.80Q381.84-25.68 385.60-28.40L385.60-28.40L385.60-28.40Q389.36-31.12 393.60-31.12L393.60-31.12L393.60-31.12Q397.84-31.12 399.56-29.44L399.56-29.44L399.56-29.44Q401.28-27.76 401.28-25.24L401.28-25.24L401.28-25.24Q401.28-22.72 399.76-21.12L399.76-21.12L399.76-21.12Q398.24-19.52 395.80-19.52L395.80-19.52L395.80-19.52Q393.36-19.52 392.04-20.92L392.04-20.92L392.04-20.92Q390.72-22.32 390.72-25.08L390.72-25.08L390.72-25.08Q390.72-27.84 392.64-29.28L392.64-29.28L392.64-29.28Q384.96-28.40 380.40-17.92L380.40-17.92L380.40-17.92Q381.52-18.08 382.32-18.08L382.32-18.08L382.32-18.08Q386.56-18.08 389.00-16.40L389.00-16.40L389.00-16.40Q391.44-14.72 392.16-12.28L392.16-12.28L392.16-12.28Q392.88-9.84 393.20-7.40L393.20-7.40L393.20-7.40Q393.52-4.96 394.24-3.28L394.24-3.28L394.24-3.28Q394.96-1.60 396.80-1.60L396.80-1.60L396.80-1.60Q398.64-1.60 399.68-3.12L399.68-3.12L400.88-2.16L400.88-2.16Q400.32-1.04 398.40-0.16L398.40-0.16L398.40-0.16Q396.48 0.72 393.48 0.72L393.48 0.72L393.48 0.72Q390.48 0.72 388.20-0.80L388.20-0.80L388.20-0.80Q385.92-2.32 385.04-4.60L385.04-4.60L385.04-4.60Q384.16-6.88 383.60-9.12L383.60-9.12L383.60-9.12Q382.08-14.88 378.88-15.44" fill="#0a0a0a" stroke="none" stroke-width="none" transform="translate(-216.99999618530273,22.343995941162117)" style="fill: rgb(10, 10, 10);"></path></g><g class="path" style="transform: matrix(1, 0, 0, 1, 0, 0); transform-origin: 205.6px 7.144px; animation: 1s linear 0s infinite normal forwards running bounce-0a6d6283-df20-4580-af46-02a9da33dae5;"><path d="M409.92-29.52L409.92-29.52L409.92-29.52Q408.00-29.52 405.92-27.28L405.92-27.28L404.72-28.24L404.72-28.24Q405.28-29.36 407.20-30.24L407.20-30.24L407.20-30.24Q409.12-31.12 411.44-31.12L411.44-31.12L411.44-31.12Q418.72-31.12 418.72-24.56L418.72-24.56L418.72-24.56Q418.72-21.76 417.28-14.56L417.28-14.56L417.28-14.56Q415.84-7.36 415.84-5.12L415.84-5.12L415.84-5.12Q415.84-1.68 419.12-1.68L419.12-1.68L419.12-1.68Q421.44-1.68 423.64-4.40L423.64-4.40L423.64-4.40Q425.84-7.12 427.44-11.92L427.44-11.92L430.80-30.40L430.80-30.40Q436.72-30.40 439.44-30.88L439.44-30.88L440.48-31.12L435.12-0.88L435.12-0.88Q437.52-1.12 439.12-3.12L439.12-3.12L440.32-2.16L440.32-2.16Q437.92 0.72 434.32 0.72L434.32 0.72L434.32 0.72Q430.72 0.72 428.72-1.04L428.72-1.04L428.72-1.04Q426.72-2.80 426.64-6L426.64-6L426.64-6Q423.28 0.72 416.72 0.72L416.72 0.72L416.72 0.72Q412.00 0.72 409.36-1.96L409.36-1.96L409.36-1.96Q406.72-4.64 406.72-9.36L406.72-9.36L406.72-9.36Q406.72-11.84 408.24-18.92L408.24-18.92L408.24-18.92Q409.76-26 409.92-29.52" fill="#0a0a0a" stroke="none" stroke-width="none" transform="translate(-216.99999618530273,22.343995941162117)" style="fill: rgb(10, 10, 10);"></path></g></g>
</g>
</g>
<style id="bounce-0a6d6283-df20-4580-af46-02a9da33dae5" data-anikit="">@keyframes bounce-0a6d6283-df20-4580-af46-02a9da33dae5
{
  0% {
    animation-timing-function: cubic-bezier(0.1361,0.2514,0.2175,0.8786);
    transform: translate(0,0px) scaleY(1);
  }
  37% {
    animation-timing-function: cubic-bezier(0.7674,0.1844,0.8382,0.7157);
    transform: translate(0,-39.96px) scaleY(1);
  }
  72% {
    animation-timing-function: cubic-bezier(0.1118,0.2149,0.2172,0.941);
    transform: translate(0,0px) scaleY(1);
  }
  87% {
    animation-timing-function: cubic-bezier(0.7494,0.2259,0.8209,0.6963);
    transform: translate(0,19.900000000000002px) scaleY(0.602);
  }
  100% {
    transform: translate(0,0px) scaleY(1);
  }
}</style></svg>